<svg width="352" height="84" viewBox="0 0 352 84" fill="none" xmlns="http://www.w3.org/2000/svg">
<path d="M92.6232 12V3.27273H93.68V11.0625H97.7369V12H92.6232ZM101.896 12.1364C101.305 12.1364 100.787 11.9957 100.341 11.7145C99.8974 11.4332 99.5508 11.0398 99.3008 10.5341C99.0536 10.0284 98.93 9.4375 98.93 8.76136C98.93 8.07955 99.0536 7.48437 99.3008 6.97585C99.5508 6.46733 99.8974 6.07244 100.341 5.79119C100.787 5.50994 101.305 5.36932 101.896 5.36932C102.487 5.36932 103.004 5.50994 103.447 5.79119C103.893 6.07244 104.24 6.46733 104.487 6.97585C104.737 7.48437 104.862 8.07955 104.862 8.76136C104.862 9.4375 104.737 10.0284 104.487 10.5341C104.24 11.0398 103.893 11.4332 103.447 11.7145C103.004 11.9957 102.487 12.1364 101.896 12.1364ZM101.896 11.233C102.345 11.233 102.714 11.1179 103.004 10.8878C103.294 10.6577 103.508 10.3551 103.647 9.98011C103.787 9.60511 103.856 9.19886 103.856 8.76136C103.856 8.32386 103.787 7.91619 103.647 7.53835C103.508 7.16051 103.294 6.85511 103.004 6.62216C102.714 6.3892 102.345 6.27273 101.896 6.27273C101.447 6.27273 101.078 6.3892 100.788 6.62216C100.498 6.85511 100.284 7.16051 100.145 7.53835C100.005 7.91619 99.9357 8.32386 99.9357 8.76136C99.9357 9.19886 100.005 9.60511 100.145 9.98011C100.284 10.3551 100.498 10.6577 100.788 10.8878C101.078 11.1179 101.447 11.233 101.896 11.233ZM106.397 12V5.45455H107.369V6.44318H107.437C107.556 6.11932 107.772 5.85653 108.085 5.65483C108.397 5.45312 108.749 5.35227 109.141 5.35227C109.215 5.35227 109.308 5.35369 109.418 5.35653C109.529 5.35937 109.613 5.36364 109.67 5.36932V6.39205C109.636 6.38352 109.558 6.37074 109.435 6.35369C109.316 6.33381 109.19 6.32386 109.056 6.32386C108.738 6.32386 108.454 6.39062 108.204 6.52415C107.957 6.65483 107.761 6.83665 107.616 7.0696C107.474 7.29972 107.403 7.5625 107.403 7.85795V12H106.397ZM113.407 12.1364C112.776 12.1364 112.232 11.9972 111.775 11.7188C111.32 11.4375 110.969 11.0455 110.722 10.5426C110.478 10.0369 110.356 9.44886 110.356 8.77841C110.356 8.10795 110.478 7.51705 110.722 7.00568C110.969 6.49148 111.313 6.09091 111.754 5.80398C112.197 5.5142 112.714 5.36932 113.305 5.36932C113.646 5.36932 113.982 5.42614 114.315 5.53977C114.647 5.65341 114.95 5.83807 115.222 6.09375C115.495 6.34659 115.712 6.68182 115.874 7.09943C116.036 7.51705 116.117 8.03125 116.117 8.64205V9.06818H111.072V8.19886H115.094C115.094 7.82955 115.021 7.5 114.873 7.21023C114.728 6.92045 114.521 6.69176 114.251 6.52415C113.984 6.35653 113.668 6.27273 113.305 6.27273C112.904 6.27273 112.558 6.37216 112.265 6.57102C111.975 6.76705 111.752 7.02273 111.596 7.33807C111.44 7.65341 111.362 7.99148 111.362 8.35227V8.93182C111.362 9.42614 111.447 9.84517 111.617 10.1889C111.79 10.5298 112.031 10.7898 112.337 10.9688C112.644 11.1449 113.001 11.233 113.407 11.233C113.671 11.233 113.91 11.196 114.123 11.1222C114.339 11.0455 114.525 10.9318 114.681 10.7812C114.837 10.6278 114.958 10.4375 115.043 10.2102L116.015 10.483C115.913 10.8125 115.741 11.1023 115.499 11.3523C115.258 11.5994 114.96 11.7926 114.604 11.9318C114.249 12.0682 113.85 12.1364 113.407 12.1364ZM117.647 12V5.45455H118.619V6.47727H118.704C118.84 6.12784 119.06 5.85653 119.364 5.66335C119.668 5.46733 120.033 5.36932 120.46 5.36932C120.891 5.36932 121.251 5.46733 121.538 5.66335C121.827 5.85653 122.053 6.12784 122.215 6.47727H122.283C122.451 6.1392 122.702 5.87074 123.038 5.67188C123.373 5.47017 123.775 5.36932 124.244 5.36932C124.829 5.36932 125.308 5.55256 125.68 5.91903C126.052 6.28267 126.238 6.84943 126.238 7.61932V12H125.232V7.61932C125.232 7.13636 125.1 6.79119 124.836 6.58381C124.572 6.37642 124.261 6.27273 123.903 6.27273C123.442 6.27273 123.086 6.41193 122.833 6.69034C122.58 6.96591 122.454 7.31534 122.454 7.73864V12H121.431V7.51705C121.431 7.14489 121.31 6.84517 121.069 6.6179C120.827 6.38778 120.516 6.27273 120.136 6.27273C119.874 6.27273 119.63 6.34233 119.403 6.48153C119.178 6.62074 118.996 6.81392 118.857 7.06108C118.721 7.3054 118.653 7.58807 118.653 7.90909V12H117.647ZM132.645 3.27273V12H131.588V3.27273H132.645ZM134.627 14.4545V5.45455H135.599V6.49432H135.718C135.792 6.38068 135.895 6.2358 136.025 6.05966C136.159 5.88068 136.349 5.72159 136.596 5.58239C136.846 5.44034 137.184 5.36932 137.61 5.36932C138.162 5.36932 138.647 5.5071 139.068 5.78267C139.488 6.05824 139.816 6.44886 140.052 6.95455C140.288 7.46023 140.406 8.05682 140.406 8.74432C140.406 9.4375 140.288 10.0384 140.052 10.5469C139.816 11.0526 139.49 11.4446 139.072 11.723C138.654 11.9986 138.173 12.1364 137.627 12.1364C137.207 12.1364 136.87 12.0668 136.618 11.9276C136.365 11.7855 136.17 11.625 136.034 11.446C135.897 11.2642 135.792 11.1136 135.718 10.9943H135.633V14.4545H134.627ZM135.616 8.72727C135.616 9.22159 135.689 9.65767 135.833 10.0355C135.978 10.4105 136.19 10.7045 136.468 10.9176C136.747 11.1278 137.088 11.233 137.491 11.233C137.912 11.233 138.262 11.1222 138.544 10.9006C138.828 10.6761 139.041 10.375 139.183 9.99716C139.328 9.61648 139.4 9.19318 139.4 8.72727C139.4 8.26705 139.329 7.85227 139.187 7.48295C139.048 7.1108 138.836 6.81676 138.552 6.60085C138.271 6.3821 137.917 6.27273 137.491 6.27273C137.082 6.27273 136.738 6.37642 136.46 6.58381C136.181 6.78835 135.971 7.07528 135.829 7.4446C135.687 7.81108 135.616 8.23864 135.616 8.72727ZM146.576 6.92045L145.673 7.17614C145.616 7.02557 145.532 6.87926 145.422 6.73722C145.314 6.59233 145.166 6.47301 144.978 6.37926C144.791 6.28551 144.551 6.23864 144.258 6.23864C143.858 6.23864 143.524 6.33097 143.257 6.51562C142.993 6.69744 142.86 6.92898 142.86 7.21023C142.86 7.46023 142.951 7.65767 143.133 7.80256C143.315 7.94744 143.599 8.06818 143.985 8.16477L144.957 8.40341C145.542 8.54545 145.978 8.76278 146.265 9.0554C146.552 9.34517 146.696 9.71875 146.696 10.1761C146.696 10.5511 146.588 10.8864 146.372 11.1818C146.159 11.4773 145.86 11.7102 145.477 11.8807C145.093 12.0511 144.647 12.1364 144.139 12.1364C143.471 12.1364 142.919 11.9915 142.481 11.7017C142.044 11.4119 141.767 10.9886 141.65 10.4318L142.605 10.1932C142.696 10.5455 142.868 10.8097 143.12 10.9858C143.376 11.1619 143.71 11.25 144.122 11.25C144.591 11.25 144.963 11.1506 145.238 10.9517C145.517 10.75 145.656 10.5085 145.656 10.2273C145.656 10 145.576 9.80966 145.417 9.65625C145.258 9.5 145.014 9.38352 144.684 9.30682L143.593 9.05114C142.994 8.90909 142.554 8.68892 142.272 8.39062C141.994 8.08949 141.855 7.71307 141.855 7.26136C141.855 6.89205 141.958 6.56534 142.166 6.28125C142.376 5.99716 142.662 5.77415 143.022 5.61222C143.386 5.45028 143.798 5.36932 144.258 5.36932C144.906 5.36932 145.414 5.51136 145.784 5.79545C146.156 6.07955 146.42 6.45455 146.576 6.92045ZM152.335 9.32386V5.45455H153.34V12H152.335V10.892H152.266C152.113 11.2244 151.874 11.5071 151.55 11.7401C151.227 11.9702 150.817 12.0852 150.323 12.0852C149.914 12.0852 149.55 11.9957 149.232 11.8168C148.914 11.6349 148.664 11.3622 148.482 10.9986C148.3 10.6321 148.21 10.1705 148.21 9.61364V5.45455H149.215V9.54545C149.215 10.0227 149.349 10.4034 149.616 10.6875C149.886 10.9716 150.229 11.1136 150.647 11.1136C150.897 11.1136 151.151 11.0497 151.41 10.9219C151.671 10.794 151.89 10.598 152.066 10.3338C152.245 10.0696 152.335 9.73295 152.335 9.32386ZM155.182 12V5.45455H156.154V6.47727H156.239C156.375 6.12784 156.596 5.85653 156.9 5.66335C157.203 5.46733 157.569 5.36932 157.995 5.36932C158.426 5.36932 158.786 5.46733 159.073 5.66335C159.363 5.85653 159.588 6.12784 159.75 6.47727H159.819C159.986 6.1392 160.238 5.87074 160.573 5.67188C160.908 5.47017 161.31 5.36932 161.779 5.36932C162.364 5.36932 162.843 5.55256 163.215 5.91903C163.587 6.28267 163.773 6.84943 163.773 7.61932V12H162.767V7.61932C162.767 7.13636 162.635 6.79119 162.371 6.58381C162.107 6.37642 161.796 6.27273 161.438 6.27273C160.978 6.27273 160.621 6.41193 160.368 6.69034C160.115 6.96591 159.989 7.31534 159.989 7.73864V12H158.966V7.51705C158.966 7.14489 158.846 6.84517 158.604 6.6179C158.363 6.38778 158.051 6.27273 157.671 6.27273C157.409 6.27273 157.165 6.34233 156.938 6.48153C156.713 6.62074 156.532 6.81392 156.392 7.06108C156.256 7.3054 156.188 7.58807 156.188 7.90909V12H155.182ZM171.816 12H169.123V3.27273H171.936C172.782 3.27273 173.507 3.44744 174.109 3.79688C174.711 4.14347 175.173 4.64205 175.494 5.29261C175.815 5.94034 175.975 6.71591 175.975 7.61932C175.975 8.52841 175.814 9.31108 175.49 9.96733C175.166 10.6207 174.694 11.1236 174.075 11.4759C173.456 11.8253 172.703 12 171.816 12ZM170.18 11.0625H171.748C172.47 11.0625 173.068 10.9233 173.542 10.6449C174.017 10.3665 174.37 9.97017 174.603 9.45597C174.836 8.94176 174.953 8.32955 174.953 7.61932C174.953 6.91477 174.838 6.30824 174.608 5.79972C174.377 5.28835 174.034 4.89631 173.576 4.62358C173.119 4.34801 172.549 4.21023 171.868 4.21023H170.18V11.0625ZM180.356 12.1364C179.725 12.1364 179.181 11.9972 178.724 11.7188C178.27 11.4375 177.919 11.0455 177.672 10.5426C177.427 10.0369 177.305 9.44886 177.305 8.77841C177.305 8.10795 177.427 7.51705 177.672 7.00568C177.919 6.49148 178.262 6.09091 178.703 5.80398C179.146 5.5142 179.663 5.36932 180.254 5.36932C180.595 5.36932 180.931 5.42614 181.264 5.53977C181.596 5.65341 181.899 5.83807 182.172 6.09375C182.444 6.34659 182.662 6.68182 182.824 7.09943C182.985 7.51705 183.066 8.03125 183.066 8.64205V9.06818H178.021V8.19886H182.044C182.044 7.82955 181.97 7.5 181.822 7.21023C181.677 6.92045 181.47 6.69176 181.2 6.52415C180.933 6.35653 180.618 6.27273 180.254 6.27273C179.853 6.27273 179.507 6.37216 179.214 6.57102C178.924 6.76705 178.701 7.02273 178.545 7.33807C178.389 7.65341 178.311 7.99148 178.311 8.35227V8.93182C178.311 9.42614 178.396 9.84517 178.566 10.1889C178.74 10.5298 178.98 10.7898 179.287 10.9688C179.593 11.1449 179.95 11.233 180.356 11.233C180.62 11.233 180.859 11.196 181.072 11.1222C181.288 11.0455 181.474 10.9318 181.63 10.7812C181.787 10.6278 181.907 10.4375 181.993 10.2102L182.964 10.483C182.862 10.8125 182.69 11.1023 182.449 11.3523C182.207 11.5994 181.909 11.7926 181.554 11.9318C181.199 12.0682 180.799 12.1364 180.356 12.1364ZM189.233 6.92045L188.329 7.17614C188.272 7.02557 188.189 6.87926 188.078 6.73722C187.97 6.59233 187.822 6.47301 187.635 6.37926C187.447 6.28551 187.207 6.23864 186.914 6.23864C186.514 6.23864 186.18 6.33097 185.913 6.51562C185.649 6.69744 185.517 6.92898 185.517 7.21023C185.517 7.46023 185.608 7.65767 185.789 7.80256C185.971 7.94744 186.255 8.06818 186.642 8.16477L187.613 8.40341C188.199 8.54545 188.635 8.76278 188.922 9.0554C189.208 9.34517 189.352 9.71875 189.352 10.1761C189.352 10.5511 189.244 10.8864 189.028 11.1818C188.815 11.4773 188.517 11.7102 188.133 11.8807C187.75 12.0511 187.304 12.1364 186.795 12.1364C186.127 12.1364 185.575 11.9915 185.137 11.7017C184.7 11.4119 184.423 10.9886 184.306 10.4318L185.261 10.1932C185.352 10.5455 185.524 10.8097 185.777 10.9858C186.032 11.1619 186.366 11.25 186.778 11.25C187.247 11.25 187.619 11.1506 187.895 10.9517C188.173 10.75 188.312 10.5085 188.312 10.2273C188.312 10 188.233 9.80966 188.074 9.65625C187.914 9.5 187.67 9.38352 187.341 9.30682L186.25 9.05114C185.65 8.90909 185.21 8.68892 184.929 8.39062C184.65 8.08949 184.511 7.71307 184.511 7.26136C184.511 6.89205 184.615 6.56534 184.822 6.28125C185.032 5.99716 185.318 5.77415 185.679 5.61222C186.042 5.45028 186.454 5.36932 186.914 5.36932C187.562 5.36932 188.071 5.51136 188.44 5.79545C188.812 6.07955 189.076 6.45455 189.233 6.92045ZM193.525 12.1364C192.911 12.1364 192.383 11.9915 191.94 11.7017C191.496 11.4119 191.156 11.0128 190.917 10.5043C190.678 9.99574 190.559 9.41477 190.559 8.76136C190.559 8.09659 190.681 7.50994 190.925 7.00142C191.173 6.49006 191.516 6.09091 191.957 5.80398C192.4 5.5142 192.917 5.36932 193.508 5.36932C193.968 5.36932 194.383 5.45455 194.752 5.625C195.121 5.79545 195.424 6.03409 195.66 6.34091C195.896 6.64773 196.042 7.00568 196.099 7.41477H195.093C195.016 7.11648 194.846 6.85227 194.582 6.62216C194.32 6.3892 193.968 6.27273 193.525 6.27273C193.133 6.27273 192.789 6.375 192.494 6.57955C192.201 6.78125 191.972 7.06676 191.808 7.43608C191.646 7.80256 191.565 8.23295 191.565 8.72727C191.565 9.23295 191.644 9.6733 191.803 10.0483C191.965 10.4233 192.192 10.7145 192.485 10.9219C192.781 11.1293 193.127 11.233 193.525 11.233C193.786 11.233 194.023 11.1875 194.237 11.0966C194.45 11.0057 194.63 10.875 194.778 10.7045C194.925 10.5341 195.031 10.3295 195.093 10.0909H196.099C196.042 10.4773 195.901 10.8253 195.677 11.1349C195.455 11.4418 195.161 11.6861 194.795 11.8679C194.431 12.0469 194.008 12.1364 193.525 12.1364ZM197.569 12V5.45455H198.54V6.44318H198.609C198.728 6.11932 198.944 5.85653 199.256 5.65483C199.569 5.45312 199.921 5.35227 200.313 5.35227C200.387 5.35227 200.479 5.35369 200.59 5.35653C200.701 5.35937 200.785 5.36364 200.842 5.36932V6.39205C200.808 6.38352 200.729 6.37074 200.607 6.35369C200.488 6.33381 200.362 6.32386 200.228 6.32386C199.91 6.32386 199.626 6.39062 199.376 6.52415C199.129 6.65483 198.933 6.83665 198.788 7.0696C198.646 7.29972 198.575 7.5625 198.575 7.85795V12H197.569ZM202.034 12V5.45455H203.039V12H202.034ZM202.545 4.36364C202.349 4.36364 202.18 4.29688 202.038 4.16335C201.899 4.02983 201.829 3.86932 201.829 3.68182C201.829 3.49432 201.899 3.33381 202.038 3.20028C202.18 3.06676 202.349 3 202.545 3C202.741 3 202.909 3.06676 203.048 3.20028C203.19 3.33381 203.261 3.49432 203.261 3.68182C203.261 3.86932 203.19 4.02983 203.048 4.16335C202.909 4.29688 202.741 4.36364 202.545 4.36364ZM204.881 14.4545V5.45455H205.853V6.49432H205.972C206.046 6.38068 206.148 6.2358 206.279 6.05966C206.413 5.88068 206.603 5.72159 206.85 5.58239C207.1 5.44034 207.438 5.36932 207.864 5.36932C208.415 5.36932 208.901 5.5071 209.322 5.78267C209.742 6.05824 210.07 6.44886 210.306 6.95455C210.542 7.46023 210.66 8.05682 210.66 8.74432C210.66 9.4375 210.542 10.0384 210.306 10.5469C210.07 11.0526 209.744 11.4446 209.326 11.723C208.908 11.9986 208.427 12.1364 207.881 12.1364C207.461 12.1364 207.124 12.0668 206.871 11.9276C206.619 11.7855 206.424 11.625 206.288 11.446C206.151 11.2642 206.046 11.1136 205.972 10.9943H205.887V14.4545H204.881ZM205.87 8.72727C205.87 9.22159 205.942 9.65767 206.087 10.0355C206.232 10.4105 206.444 10.7045 206.722 10.9176C207.001 11.1278 207.342 11.233 207.745 11.233C208.165 11.233 208.516 11.1222 208.798 10.9006C209.082 10.6761 209.295 10.375 209.437 9.99716C209.582 9.61648 209.654 9.19318 209.654 8.72727C209.654 8.26705 209.583 7.85227 209.441 7.48295C209.302 7.1108 209.09 6.81676 208.806 6.60085C208.525 6.3821 208.171 6.27273 207.745 6.27273C207.336 6.27273 206.992 6.37642 206.714 6.58381C206.435 6.78835 206.225 7.07528 206.083 7.4446C205.941 7.81108 205.87 8.23864 205.87 8.72727ZM215.04 5.45455V6.30682H211.648V5.45455H215.04ZM212.637 3.88636H213.643V10.125C213.643 10.4091 213.684 10.6222 213.766 10.7642C213.852 10.9034 213.96 10.9972 214.09 11.0455C214.224 11.0909 214.364 11.1136 214.512 11.1136C214.623 11.1136 214.714 11.108 214.785 11.0966C214.856 11.0824 214.913 11.071 214.955 11.0625L215.16 11.9659C215.092 11.9915 214.996 12.017 214.874 12.0426C214.752 12.071 214.597 12.0852 214.41 12.0852C214.126 12.0852 213.847 12.0241 213.575 11.902C213.305 11.7798 213.08 11.5938 212.901 11.3438C212.725 11.0938 212.637 10.7784 212.637 10.3977V3.88636ZM216.553 12V5.45455H217.559V12H216.553ZM217.065 4.36364C216.869 4.36364 216.7 4.29688 216.558 4.16335C216.418 4.02983 216.349 3.86932 216.349 3.68182C216.349 3.49432 216.418 3.33381 216.558 3.20028C216.7 3.06676 216.869 3 217.065 3C217.261 3 217.428 3.06676 217.567 3.20028C217.71 3.33381 217.781 3.49432 217.781 3.68182C217.781 3.86932 217.71 4.02983 217.567 4.16335C217.428 4.29688 217.261 4.36364 217.065 4.36364ZM222.06 12.1364C221.469 12.1364 220.951 11.9957 220.505 11.7145C220.061 11.4332 219.715 11.0398 219.465 10.5341C219.218 10.0284 219.094 9.4375 219.094 8.76136C219.094 8.07955 219.218 7.48437 219.465 6.97585C219.715 6.46733 220.061 6.07244 220.505 5.79119C220.951 5.50994 221.469 5.36932 222.06 5.36932C222.651 5.36932 223.168 5.50994 223.611 5.79119C224.057 6.07244 224.404 6.46733 224.651 6.97585C224.901 7.48437 225.026 8.07955 225.026 8.76136C225.026 9.4375 224.901 10.0284 224.651 10.5341C224.404 11.0398 224.057 11.4332 223.611 11.7145C223.168 11.9957 222.651 12.1364 222.06 12.1364ZM222.06 11.233C222.509 11.233 222.878 11.1179 223.168 10.8878C223.458 10.6577 223.672 10.3551 223.811 9.98011C223.951 9.60511 224.02 9.19886 224.02 8.76136C224.02 8.32386 223.951 7.91619 223.811 7.53835C223.672 7.16051 223.458 6.85511 223.168 6.62216C222.878 6.3892 222.509 6.27273 222.06 6.27273C221.611 6.27273 221.242 6.3892 220.952 6.62216C220.662 6.85511 220.448 7.16051 220.309 7.53835C220.169 7.91619 220.1 8.32386 220.1 8.76136C220.1 9.19886 220.169 9.60511 220.309 9.98011C220.448 10.3551 220.662 10.6577 220.952 10.8878C221.242 11.1179 221.611 11.233 222.06 11.233ZM227.567 8.0625V12H226.561V5.45455H227.533V6.47727H227.618C227.771 6.14489 228.004 5.87784 228.317 5.67614C228.629 5.47159 229.033 5.36932 229.527 5.36932C229.97 5.36932 230.358 5.46023 230.69 5.64205C231.023 5.82102 231.281 6.09375 231.466 6.46023C231.651 6.82386 231.743 7.28409 231.743 7.84091V12H230.737V7.90909C230.737 7.39489 230.604 6.99432 230.337 6.70739C230.07 6.41761 229.703 6.27273 229.237 6.27273C228.916 6.27273 228.629 6.34233 228.376 6.48153C228.126 6.62074 227.929 6.82386 227.784 7.09091C227.639 7.35795 227.567 7.68182 227.567 8.0625ZM236.615 4.21023V3.27273H243.16V4.21023H240.416V12H239.359V4.21023H236.615ZM246.45 12.1364C245.819 12.1364 245.275 11.9972 244.818 11.7188C244.363 11.4375 244.012 11.0455 243.765 10.5426C243.521 10.0369 243.399 9.44886 243.399 8.77841C243.399 8.10795 243.521 7.51705 243.765 7.00568C244.012 6.49148 244.356 6.09091 244.797 5.80398C245.24 5.5142 245.757 5.36932 246.348 5.36932C246.689 5.36932 247.025 5.42614 247.358 5.53977C247.69 5.65341 247.993 5.83807 248.265 6.09375C248.538 6.34659 248.755 6.68182 248.917 7.09943C249.079 7.51705 249.16 8.03125 249.16 8.64205V9.06818H244.115V8.19886H248.137C248.137 7.82955 248.064 7.5 247.916 7.21023C247.771 6.92045 247.564 6.69176 247.294 6.52415C247.027 6.35653 246.711 6.27273 246.348 6.27273C245.947 6.27273 245.6 6.37216 245.308 6.57102C245.018 6.76705 244.795 7.02273 244.639 7.33807C244.483 7.65341 244.404 7.99148 244.404 8.35227V8.93182C244.404 9.42614 244.49 9.84517 244.66 10.1889C244.833 10.5298 245.074 10.7898 245.38 10.9688C245.687 11.1449 246.044 11.233 246.45 11.233C246.714 11.233 246.953 11.196 247.166 11.1222C247.382 11.0455 247.568 10.9318 247.724 10.7812C247.88 10.6278 248.001 10.4375 248.086 10.2102L249.058 10.483C248.956 10.8125 248.784 11.1023 248.542 11.3523C248.301 11.5994 248.002 11.7926 247.647 11.9318C247.292 12.0682 246.893 12.1364 246.45 12.1364ZM251.264 5.45455L252.832 8.13068L254.401 5.45455H255.56L253.446 8.72727L255.56 12H254.401L252.832 9.46023L251.264 12H250.105L252.185 8.72727L250.105 5.45455H251.264ZM259.841 5.45455V6.30682H256.449V5.45455H259.841ZM257.438 3.88636H258.444V10.125C258.444 10.4091 258.485 10.6222 258.567 10.7642C258.652 10.9034 258.76 10.9972 258.891 11.0455C259.025 11.0909 259.165 11.1136 259.313 11.1136C259.424 11.1136 259.515 11.108 259.586 11.0966C259.657 11.0824 259.713 11.071 259.756 11.0625L259.961 11.9659C259.892 11.9915 259.797 12.017 259.675 12.0426C259.553 12.071 259.398 12.0852 259.211 12.0852C258.926 12.0852 258.648 12.0241 258.375 11.902C258.105 11.7798 257.881 11.5938 257.702 11.3438C257.526 11.0938 257.438 10.7784 257.438 10.3977V3.88636Z" fill="black"/>
<path d="M3.19367 75V40.224H13.3457V53.184H25.3337V40.224H35.4857V75H25.3337V62.04H13.3457V75H3.19367ZM54.2494 75.54C49.1374 75.54 45.3574 74.406 42.9094 72.138C40.4974 69.87 39.2914 66.558 39.2914 62.202C39.2914 57.882 40.5154 54.588 42.9634 52.32C45.4114 50.016 49.1734 48.864 54.2494 48.864C59.3614 48.864 63.1414 50.016 65.5894 52.32C68.0734 54.588 69.3154 57.882 69.3154 62.202C69.3154 66.558 68.0914 69.87 65.6434 72.138C63.1954 74.406 59.3974 75.54 54.2494 75.54ZM54.2494 68.142C55.9054 68.142 57.0934 67.674 57.8134 66.738C58.5694 65.802 58.9474 64.29 58.9474 62.202C58.9474 60.15 58.5694 58.656 57.8134 57.72C57.0934 56.748 55.9054 56.262 54.2494 56.262C52.6294 56.262 51.4594 56.748 50.7394 57.72C50.0194 58.656 49.6594 60.15 49.6594 62.202C49.6594 64.29 50.0194 65.802 50.7394 66.738C51.4594 67.674 52.6294 68.142 54.2494 68.142ZM76.3637 75L69.6137 49.404H79.4417L82.4657 62.094L85.4357 53.076V49.404H92.8877L96.4517 62.094L99.3677 49.404H109.196L102.446 75H93.3737L89.4857 63.39L85.5977 75H76.3637ZM124.061 75V40.224H134.213V75H124.061ZM150.052 75.54C146.632 75.54 144.148 74.676 142.6 72.948C141.052 71.22 140.278 68.88 140.278 65.928V56.91H136.93V49.404H140.278V44.166L150.43 41.736V49.404H156.316L155.938 56.91H150.43V65.172C150.43 66.252 150.7 67.026 151.24 67.494C151.78 67.926 152.608 68.142 153.724 68.142C154.768 68.142 155.83 67.962 156.91 67.602V74.352C155.002 75.144 152.716 75.54 150.052 75.54ZM177.698 75L169.598 40.224H179.534L183.476 58.638L187.31 45.462V40.224H195.626L200.918 58.692L205.076 40.224H215.012L206.966 75H197.786L192.548 57.018L186.878 75H177.698ZM228.589 75.54C223.477 75.54 219.697 74.406 217.249 72.138C214.837 69.87 213.631 66.558 213.631 62.202C213.631 57.882 214.855 54.588 217.303 52.32C219.751 50.016 223.513 48.864 228.589 48.864C233.701 48.864 237.481 50.016 239.929 52.32C242.413 54.588 243.655 57.882 243.655 62.202C243.655 66.558 242.431 69.87 239.983 72.138C237.535 74.406 233.737 75.54 228.589 75.54ZM228.589 68.142C230.245 68.142 231.433 67.674 232.153 66.738C232.909 65.802 233.287 64.29 233.287 62.202C233.287 60.15 232.909 58.656 232.153 57.72C231.433 56.748 230.245 56.262 228.589 56.262C226.969 56.262 225.799 56.748 225.079 57.72C224.359 58.656 223.999 60.15 223.999 62.202C223.999 64.29 224.359 65.802 225.079 66.738C225.799 67.674 226.969 68.142 228.589 68.142ZM247.459 75V49.404H257.233L257.503 51.456C258.547 50.844 259.879 50.286 261.499 49.782C263.119 49.278 264.757 48.972 266.413 48.864V56.424C265.477 56.496 264.451 56.622 263.335 56.802C262.255 56.982 261.193 57.216 260.149 57.504C259.141 57.756 258.295 58.044 257.611 58.368V75H247.459ZM269.291 75V38.604H279.443V56.586L286.571 49.404H298.073L287.867 60.204L298.667 75H287.867L281.549 65.496L279.443 67.602V75H269.291ZM310.289 75.54C308.093 75.54 306.023 75.378 304.079 75.054C302.171 74.766 300.659 74.388 299.543 73.92V66.63C300.803 67.206 302.297 67.656 304.025 67.98C305.789 68.304 307.283 68.466 308.507 68.466C309.803 68.466 310.775 68.43 311.423 68.358C312.107 68.286 312.449 67.98 312.449 67.44C312.449 66.828 311.855 66.36 310.667 66.036C309.479 65.712 307.985 65.244 306.185 64.632C303.845 63.804 302.099 62.832 300.947 61.716C299.795 60.6 299.219 58.98 299.219 56.856C299.219 54.3 300.227 52.338 302.243 50.97C304.259 49.566 307.427 48.864 311.747 48.864C313.403 48.864 315.113 48.99 316.877 49.242C318.641 49.494 320.027 49.782 321.035 50.106V57.234C319.955 56.766 318.767 56.424 317.471 56.208C316.211 55.992 315.059 55.884 314.015 55.884C312.863 55.884 311.837 55.938 310.937 56.046C310.037 56.154 309.587 56.46 309.587 56.964C309.587 57.54 310.091 57.954 311.099 58.206C312.143 58.458 313.529 58.854 315.257 59.394C317.201 59.97 318.713 60.6 319.793 61.284C320.909 61.968 321.683 62.796 322.115 63.768C322.583 64.74 322.817 65.946 322.817 67.386C322.817 69.978 321.755 71.994 319.631 73.434C317.543 74.838 314.429 75.54 310.289 75.54ZM330.934 65.064V64.092C330.934 62.58 331.222 61.356 331.798 60.42C332.374 59.448 333.256 58.44 334.444 57.396C335.416 56.532 336.28 55.83 337.036 55.29C337.792 54.714 338.386 54.156 338.818 53.616C339.286 53.04 339.52 52.338 339.52 51.51C339.52 50.358 339.052 49.548 338.116 49.08C337.216 48.576 335.74 48.324 333.688 48.324C332.104 48.324 330.592 48.522 329.152 48.918C327.748 49.278 326.542 49.764 325.534 50.376V41.952C326.938 41.232 328.558 40.674 330.394 40.278C332.23 39.882 334.3 39.684 336.604 39.684C340.888 39.684 344.164 40.602 346.432 42.438C348.736 44.274 349.888 46.794 349.888 49.998C349.888 51.978 349.51 53.598 348.754 54.858C347.998 56.118 346.81 57.414 345.19 58.746C343.966 59.754 342.886 60.654 341.95 61.446C341.014 62.238 340.546 63.228 340.546 64.416V65.064H330.934ZM330.448 75V67.818H341.032V75H330.448Z" fill="black"/>
</svg>
